<svg width="400" height="100" viewBox="0 0 400 100" fill="none" xmlns="http://www.w3.org/2000/svg">
<rect x="11" y="6" width="379" height="92" rx="38" fill="#FB8682" stroke="white" stroke-width="4"/>
<path d="M128.876 74.172C127.559 72.5507 126.9 71.1067 126.9 69.84C126.9 68.5227 127.989 66.8 130.168 64.672C131.435 63.456 132.777 62.848 134.196 62.848C135.615 62.848 137.591 64.1147 140.124 66.648C140.833 67.5093 141.847 68.3453 143.164 69.156C144.481 69.916 145.697 70.296 146.812 70.296C151.524 70.296 153.88 68.3707 153.88 64.52C153.88 63.3547 153.221 62.392 151.904 61.632C150.637 60.8213 149.041 60.2387 147.116 59.884C145.191 59.5293 143.113 58.972 140.884 58.212C138.655 57.4013 136.577 56.464 134.652 55.4C132.727 54.336 131.105 52.664 129.788 50.384C128.521 48.0533 127.888 45.2667 127.888 42.024C127.888 37.5653 129.535 33.6893 132.828 30.396C136.172 27.052 140.707 25.38 146.432 25.38C149.472 25.38 152.233 25.7853 154.716 26.596C157.249 27.356 158.997 28.1413 159.96 28.952L161.86 30.396C163.431 31.8653 164.216 33.1067 164.216 34.12C164.216 35.1333 163.608 36.5267 162.392 38.3C160.669 40.8333 158.896 42.1 157.072 42.1C156.008 42.1 154.691 41.5933 153.12 40.58C152.968 40.4787 152.664 40.2253 152.208 39.82C151.803 39.4147 151.423 39.0853 151.068 38.832C150.004 38.1733 148.636 37.844 146.964 37.844C145.343 37.844 143.975 38.2493 142.86 39.06C141.796 39.82 141.264 40.9093 141.264 42.328C141.264 43.696 141.897 44.8107 143.164 45.672C144.481 46.5333 146.103 47.116 148.028 47.42C149.953 47.724 152.056 48.2053 154.336 48.864C156.616 49.472 158.719 50.232 160.644 51.144C162.569 52.056 164.165 53.652 165.432 55.932C166.749 58.1613 167.408 60.9227 167.408 64.216C167.408 67.5093 166.749 70.4227 165.432 72.956C164.115 75.4387 162.392 77.364 160.264 78.732C156.16 81.4173 151.777 82.76 147.116 82.76C144.735 82.76 142.48 82.4813 140.352 81.924C138.224 81.316 136.501 80.5813 135.184 79.72C132.499 78.0987 130.624 76.528 129.56 75.008L128.876 74.172ZM172.211 26.216H214.467C216.089 26.216 217.279 26.4187 218.039 26.824C218.799 27.1787 219.306 27.7613 219.559 28.572C219.813 29.3827 219.939 30.4467 219.939 31.764C219.939 33.0813 219.813 34.1453 219.559 34.956C219.306 35.716 218.875 36.248 218.267 36.552C217.355 37.008 216.063 37.236 214.391 37.236H199.875V75.464C199.875 76.6293 199.825 77.4907 199.723 78.048C199.673 78.6053 199.445 79.264 199.039 80.024C198.685 80.7333 198.026 81.24 197.063 81.544C196.101 81.848 194.834 82 193.263 82C191.693 82 190.426 81.848 189.463 81.544C188.551 81.24 187.893 80.7333 187.487 80.024C187.133 79.264 186.905 78.6053 186.803 78.048C186.753 77.44 186.727 76.5533 186.727 75.388V37.236H172.135C170.514 37.236 169.323 37.0587 168.563 36.704C167.803 36.2987 167.297 35.6907 167.043 34.88C166.79 34.0693 166.663 33.0053 166.663 31.688C166.663 30.3707 166.79 29.332 167.043 28.572C167.297 27.7613 167.727 27.204 168.335 26.9C169.247 26.444 170.539 26.216 172.211 26.216ZM244.872 30.244L265.392 72.652C266.253 74.3747 266.684 75.6667 266.684 76.528C266.684 78.352 265.214 79.9987 262.276 81.468C260.553 82.3293 259.185 82.76 258.172 82.76C257.209 82.76 256.398 82.532 255.74 82.076C255.132 81.62 254.676 81.1387 254.372 80.632C254.118 80.1253 253.738 79.3653 253.232 78.352L249.28 70.144H228.228L224.276 78.352C223.769 79.3653 223.364 80.1 223.06 80.556C222.806 81.012 222.35 81.4933 221.692 82C221.084 82.456 220.273 82.684 219.26 82.684C218.297 82.684 216.954 82.2533 215.232 81.392C212.293 79.9733 210.824 78.352 210.824 76.528C210.824 75.6667 211.254 74.3747 212.116 72.652L232.636 30.168C233.193 29.0027 234.029 28.0653 235.144 27.356C236.309 26.6467 237.525 26.292 238.792 26.292C241.528 26.292 243.554 27.6093 244.872 30.244ZM238.716 48.484L233.7 58.896H243.808L238.716 48.484ZM313.473 72.576C314.233 74.4 314.613 75.7173 314.613 76.528C314.613 78.4533 313.042 80.0747 309.901 81.392C308.28 82.1013 306.962 82.456 305.949 82.456C304.986 82.456 304.176 82.228 303.517 81.772C302.909 81.2653 302.453 80.7587 302.149 80.252C301.642 79.2893 299.666 74.704 296.221 66.496L293.865 66.648H284.289V75.236C284.289 76.4013 284.238 77.288 284.137 77.896C284.086 78.4533 283.858 79.112 283.453 79.872C282.744 81.24 280.768 81.924 277.525 81.924C273.978 81.924 271.901 80.9867 271.293 79.112C270.989 78.2507 270.837 76.9333 270.837 75.16V32.98C270.837 31.8147 270.862 30.9533 270.913 30.396C271.014 29.788 271.268 29.104 271.673 28.344C272.382 26.976 274.358 26.292 277.601 26.292H294.017C298.476 26.292 302.808 27.9133 307.013 31.156C309.04 32.7267 310.712 34.8547 312.029 37.54C313.346 40.2253 314.005 43.2147 314.005 46.508C314.005 52.2333 312.105 56.9453 308.305 60.644C309.42 63.3293 311.142 67.3067 313.473 72.576ZM284.289 53.196H294.017C295.486 53.196 296.956 52.6387 298.425 51.524C299.894 50.4093 300.629 48.7373 300.629 46.508C300.629 44.2787 299.894 42.6067 298.425 41.492C296.956 40.3267 295.436 39.744 293.865 39.744H284.289V53.196ZM319.387 26.216H361.643C363.265 26.216 364.455 26.4187 365.215 26.824C365.975 27.1787 366.482 27.7613 366.735 28.572C366.989 29.3827 367.115 30.4467 367.115 31.764C367.115 33.0813 366.989 34.1453 366.735 34.956C366.482 35.716 366.051 36.248 365.443 36.552C364.531 37.008 363.239 37.236 361.567 37.236H347.051V75.464C347.051 76.6293 347.001 77.4907 346.899 78.048C346.849 78.6053 346.621 79.264 346.215 80.024C345.861 80.7333 345.202 81.24 344.239 81.544C343.277 81.848 342.01 82 340.439 82C338.869 82 337.602 81.848 336.639 81.544C335.727 81.24 335.069 80.7333 334.663 80.024C334.309 79.264 334.081 78.6053 333.979 78.048C333.929 77.44 333.903 76.5533 333.903 75.388V37.236H319.311C317.69 37.236 316.499 37.0587 315.739 36.704C314.979 36.2987 314.473 35.6907 314.219 34.88C313.966 34.0693 313.839 33.0053 313.839 31.688C313.839 30.3707 313.966 29.332 314.219 28.572C314.473 27.7613 314.903 27.204 315.511 26.9C316.423 26.444 317.715 26.216 319.387 26.216Z" fill="white"/>
<ellipse cx="72" cy="54.5" rx="30" ry="30.5" fill="white"/>
<path d="M94 55.5L58.75 75.8516L58.75 35.1484L94 55.5Z" fill="#FB8682"/>
</svg>
